<svg width="46" height="39" fill="none" xmlns="http://www.w3.org/2000/svg"><path d="M23 .769C14.422.769 6.551 3.866.412 8.866c-.221.182-.366.45-.403.747-.037.296.038.596.207.834.169.238.418.393.694.433.276.04.555-.04.776-.222C7.47 5.946 14.89 3.017 23 3.017s15.529 2.93 21.314 7.64c.221.182.5.262.776.223.276-.04.525-.196.694-.433.17-.238.244-.538.207-.834a1.148 1.148 0 0 0-.403-.747C39.448 3.866 31.578.77 23 .77Zm0 10.68c-6.147 0-11.878 2-16.333 5.866a1.087 1.087 0 0 0-.309.33 1.207 1.207 0 0 0-.135.904c.038.152.105.295.198.417.092.123.207.223.338.295a.99.99 0 0 0 1.215-.207c4.048-3.513 9.301-5.357 15.026-5.357s10.978 1.844 15.026 5.357c.104.112.228.198.365.255a.978.978 0 0 0 .85-.048c.131-.072.246-.172.338-.295.093-.122.16-.265.197-.417a1.207 1.207 0 0 0-.135-.904 1.088 1.088 0 0 0-.308-.33C34.878 13.449 29.147 11.448 23 11.448Zm0 10.117c-3.753 0-7.319 1.264-10.061 3.6a1.193 1.193 0 0 0-.168 1.587 1 1 0 0 0 1.474.188c2.342-1.995 5.444-3.127 8.755-3.127 3.31 0 6.413 1.132 8.754 3.127a1 1 0 0 0 1.475-.188 1.193 1.193 0 0 0-.168-1.587c-2.742-2.336-6.308-3.6-10.061-3.6Zm0 10.68c-1.732 0-3.136 1.51-3.136 3.372 0 1.862 1.404 3.372 3.136 3.372 1.732 0 3.136-1.51 3.136-3.372 0-1.863-1.404-3.373-3.136-3.373Z" fill="#4F4F4F"/></svg>